<?xml version="1.0" encoding="UTF-8"?><svg id="a" xmlns="http://www.w3.org/2000/svg" viewBox="0 0 141.27 141.27"><path d="M85.95,70.64l52.4-52.4c3.91-3.91,3.91-10.25,0-14.16l-1.15-1.15c-3.91-3.91-10.25-3.91-14.16,0l-52.4,52.4L18.24,2.93C14.33-.98,7.99-.98,4.08,2.93l-1.15,1.15c-3.91,3.91-3.91,10.25,0,14.16l52.4,52.4L2.93,123.03c-3.91,3.91-3.91,10.25,0,14.16l1.15,1.15c3.91,3.91,10.25,3.91,14.16,0l52.4-52.4,52.4,52.4c3.91,3.91,10.25,3.91,14.16,0l1.15-1.15c3.91-3.91,3.91-10.25,0-14.16l-52.4-52.4Z"/></svg>